<?xml version="1.0" encoding="utf-8"?>
<!-- Generator: Adobe Illustrator 18.0.0, SVG Export Plug-In . SVG Version: 6.00 Build 0)  -->
<!DOCTYPE svg PUBLIC "-//W3C//DTD SVG 1.1//EN" "http://www.w3.org/Graphics/SVG/1.1/DTD/svg11.dtd">
<svg version="1.1" id="Layer_1" xmlns="http://www.w3.org/2000/svg" xmlns:xlink="http://www.w3.org/1999/xlink" x="0px" y="0px"
	 viewBox="0 0 841.9 595.3" enable-background="new 0 0 841.9 595.3" xml:space="preserve">
<g>
	<path fill="#696969" d="M176,304c0-45.3,0-89.8,0-134.4c0.7-0.2,1.3-0.6,1.9-0.6c12.7,0.1,25.4-0.2,38.1,0.5
		c13.4,0.7,25.1,10,28.5,21.6c0.6,2.2,0.9,4.5,0.9,6.8c0.1,24.9,0.4,49.8-0.1,74.7c-0.2,14.4-10.6,26.5-24.6,29.6
		c-5.7,1.3-11.7,1.5-17.6,1.7C194.3,304.2,185.4,304,176,304z M195.2,185.1c0,33.6,0,66.4,0,99.8c5.8,0,11.4,0.1,17,0
		c7.9-0.2,14-6.3,14.1-14.2c0.1-23.5,0.1-47.1,0-70.6c0-7.3-4.3-12.7-11.6-13.8C208.4,185.3,202,185.4,195.2,185.1z"/>
	<path fill="#696969" d="M329.3,168.8c6.3,0,12.1,0,18.6,0c0,2.1,0,4,0,5.9c0,31.8,0,63.6,0,95.5c0,8.3,3.8,13.8,11,16.4
		c7.5,2.7,15.8,1.1,20.1-5c2.2-3.1,3.7-7.5,3.7-11.3c0.3-31.7,0.2-63.3,0.2-95c0-1.9,0-3.9,0-6.2c6.5,0,12.5,0,19.2,0
		c0,1.9,0,3.9,0,5.8c0,32.3,0,64.6,0,96.9c0,17.8-13.8,32.4-31.5,34.6c-20.8,2.6-36.4-10.7-40.1-24.6c-0.9-3.3-1.4-6.8-1.4-10.2
		c-0.1-33-0.1-66-0.1-98.9C328.9,171.5,329.1,170.3,329.3,168.8z"/>
	<path fill="#696969" d="M485.7,169.1c20.8,0,41.1,0,62,0c0,6,0,11.8,0,18.4c-14.2,0-28.4,0-43,0c0,13.5,0,26.2,0,39.6
		c12.5,0,25,0,37.8,0c0,6.4,0,12.2,0,18.7c-1.6,0.1-3.3,0.3-5.1,0.3c-9.6,0-19.1,0.1-28.7,0c-3.5-0.1-4.5,1.1-4.5,4.5
		c0.2,10.1,0.2,20.1,0,30.2c-0.1,3.6,1,4.9,4.7,4.8c11-0.2,22.1-0.1,33.1-0.1c1.8,0,3.6,0,6.2,0c0,5.9,0.1,11.4-0.1,16.9
		c0,0.8-1.6,2.2-2.5,2.2c-19.9,0.1-39.8,0.1-60,0.1C485.7,259.3,485.7,214.5,485.7,169.1z"/>
	<path fill="#696969" d="M644.8,168.9c0,39.2,0,77.5,0,116.3c11.5,0,22.7,0,34.2,0c0,6.6,0,12.7,0,19.1c-1.6,0.1-3,0.3-4.5,0.3
		c-14.7,0-29.3-0.1-44,0.1c-3.4,0-5-0.6-5-4.6c0.1-42.3,0.1-84.7,0-127c0-3.1,0.8-4.5,4.2-4.3C634.5,169.1,639.2,168.9,644.8,168.9z
		"/>
	<path fill="#696969" d="M287.3,227.9c4.8,0,8.4,3.6,8.2,8.5c-0.1,4.5-3.7,8.2-8.1,8.3c-4.7,0.1-8.4-3.6-8.5-8.3
		C278.9,231.6,282.5,227.9,287.3,227.9z"/>
	<path fill="#696969" d="M142.1,236.1c0.1,5-3.3,8.6-8,8.6c-4.7,0-8.1-3.6-8.1-8.5c0-4.8,3.2-8.1,7.8-8.3
		C138.8,227.8,142.1,231,142.1,236.1z"/>
	<path fill="#696969" d="M585,227.9c4.6,0.2,7.7,3.7,7.6,8.5c-0.1,5-3.7,8.5-8.4,8.2c-4.7-0.2-7.9-4.1-7.6-9.1
		C576.8,230.9,580.3,227.8,585,227.9z"/>
	<path fill="#696969" d="M443.7,227.9c4.5,0,7.9,3.6,8,8.2c0.1,4.8-3.6,8.6-8.2,8.6c-4.8,0-8-3.6-7.8-8.8
		C435.8,230.9,438.9,227.9,443.7,227.9z"/>
	<path fill="#696969" d="M694.4,227.9c5.1-0.1,8,2.9,8,8.3c0,5.3-3,8.5-7.9,8.5c-4.3,0-7.9-3.6-8.1-8.1
		C686.3,231.8,689.8,228,694.4,227.9z"/>
</g>
</svg>
